<svg width="400" height="240" viewBox="0 0 400 240" fill="none" xmlns="http://www.w3.org/2000/svg">
  <rect width="400" height="240" rx="12" fill="#F8FAFC"/>
  <rect x="24" y="24" width="100" height="60" rx="8" fill="#FFFFFF" stroke="#E2E8F0" stroke-width="1.5"/>
  <text x="74" y="52" fill="#0F172A" font-family="system-ui, sans-serif" font-size="11" font-weight="600" text-anchor="middle">User Intent</text>
  <text x="74" y="68" fill="#64748B" font-family="system-ui, sans-serif" font-size="9" text-anchor="middle">LINE Ingestion</text>

  <path d="M124 54 H 160" stroke="#94A3B8" stroke-width="1.5" stroke-dasharray="3 3"/>
  <polygon points="160,54 154,50 154,58" fill="#94A3B8"/>

  <rect x="164" y="24" width="110" height="60" rx="8" fill="#FFFFFF" stroke="#3B82F6" stroke-width="1.5"/>
  <text x="219" y="52" fill="#1E40AF" font-family="system-ui, sans-serif" font-size="11" font-weight="600" text-anchor="middle">Planner Loop</text>
  <text x="219" y="68" fill="#60A5FA" font-family="system-ui, sans-serif" font-size="9" text-anchor="middle">LLM Reasoning</text>

  <path d="M274 54 H 306" stroke="#94A3B8" stroke-width="1.5"/>
  <polygon points="306,54 300,50 300,58" fill="#94A3B8"/>

  <rect x="310" y="24" width="66" height="60" rx="8" fill="#FFFFFF" stroke="#E2E8F0" stroke-width="1.5"/>
  <text x="343" y="52" fill="#0F172A" font-family="system-ui, sans-serif" font-size="11" font-weight="600" text-anchor="middle">Tools</text>
  <text x="343" y="68" fill="#64748B" font-family="system-ui, sans-serif" font-size="9" text-anchor="middle">Workers</text>

  <!-- Memory layer below -->
  <rect x="80" y="124" width="240" height="80" rx="10" fill="#EEF2F6" stroke="#CBD5E1" stroke-width="1.5"/>
  <text x="200" y="152" fill="#334155" font-family="system-ui, sans-serif" font-size="12" font-weight="600" text-anchor="middle">Episodic &amp; Semantic Memory</text>
  <text x="200" y="172" fill="#64748B" font-family="system-ui, sans-serif" font-size="10" text-anchor="middle">Contextual Compression · Zero-Tag Storage</text>

  <path d="M219 84 V 120" stroke="#3B82F6" stroke-width="1.5" stroke-dasharray="3 3"/>
  <polygon points="219,84 215,90 223,90" fill="#3B82F6"/>
  <polygon points="219,120 215,114 223,114" fill="#3B82F6"/>
</svg>
